<?xml version="1.0" encoding="UTF-8" standalone="no"?>
<!DOCTYPE svg PUBLIC "-//W3C//DTD SVG 1.1//EN" "http://www.w3.org/Graphics/SVG/1.1/DTD/svg11.dtd">
<svg width="100%" height="100%" viewBox="0 0 513 513" version="1.1" xmlns="http://www.w3.org/2000/svg" xmlns:xlink="http://www.w3.org/1999/xlink" xml:space="preserve" xmlns:serif="http://www.serif.com/" style="fill-rule:evenodd;clip-rule:evenodd;stroke-linejoin:round;stroke-miterlimit:1.41421;">
    <path d="M505.651,243.741L450.869,205.119C440.953,198.129 427.225,205.235 427.225,217.379L427.225,294.621C427.225,306.815 440.982,313.848 450.868,306.881L505.65,268.26C514.129,262.282 514.106,249.704 505.651,243.741Z" style="fill:white;fill-rule:nonzero;"/>
    <path d="M430.46,352.315C423.291,348.169 414.114,350.617 409.965,357.789C374.729,418.704 308.865,459.596 233.598,459.596C121.334,459.597 30,368.263 30,256.001C30,143.739 121.334,52.404 233.597,52.404C308.914,52.404 374.75,93.336 409.963,154.21C414.111,161.382 423.29,163.829 430.458,159.684C437.629,155.536 440.079,146.36 435.932,139.189C395.408,69.133 319.721,22.404 233.597,22.404C104.487,22.404 0,126.88 0,256.001C0,385.111 104.476,489.597 233.597,489.597C319.758,489.597 395.426,442.835 435.934,372.81C440.081,365.639 437.631,356.464 430.46,352.315Z" style="fill:white;fill-rule:nonzero;"/>
    <path d="M164.192,241.001C155.908,241.001 149.192,247.716 149.192,256.001C149.192,264.285 155.908,271.001 164.192,271.001L397.223,271.001L397.223,241.001L164.192,241.001Z" style="fill:white;fill-rule:nonzero;"/>
</svg>
